<svg width="42" height="42" viewBox="0 0 42 42" fill="none" xmlns="http://www.w3.org/2000/svg">
<path fill-rule="evenodd" clip-rule="evenodd" d="M12.5 6C10.8431 6 9.5 7.34315 9.5 9V14C9.5 14.5523 9.94772 15 10.5 15C11.0523 15 11.5 14.5523 11.5 14V9C11.5 8.44772 11.9477 8 12.5 8H29.5C30.0523 8 30.5 8.44772 30.5 9V33C30.5 33.5523 30.0523 34 29.5 34H12.5C11.9477 34 11.5 33.5523 11.5 33V28C11.5 27.4477 11.0523 27 10.5 27C9.94772 27 9.5 27.4477 9.5 28V33C9.5 34.6569 10.8431 36 12.5 36H29.5C31.1569 36 32.5 34.6569 32.5 33V9C32.5 7.34315 31.1569 6 29.5 6H12.5ZM12.25 20C11.6977 20 11.25 20.4477 11.25 21C11.25 21.5523 11.6977 22 12.25 22L18.5858 22L16.7929 23.7929C16.4024 24.1834 16.4024 24.8166 16.7929 25.2071C17.1834 25.5976 17.8166 25.5976 18.2071 25.2071L21.7071 21.7071C21.8946 21.5196 22 21.2652 22 21C22 20.7348 21.8946 20.4804 21.7071 20.2929L18.2071 16.7929C17.8166 16.4024 17.1834 16.4024 16.7929 16.7929C16.4024 17.1834 16.4024 17.8166 16.7929 18.2071L18.5858 20L12.25 20Z" fill="#7F39FB"/>
</svg>
