<svg width="42" height="42" viewBox="0 0 42 42" fill="none" xmlns="http://www.w3.org/2000/svg">
<g clip-path="url(#clip0_4047_1046)">
<path fill-rule="evenodd" clip-rule="evenodd" d="M18.4529 24.6682C20.1548 24.2289 21.9359 24 23.7442 24C25.5526 24 27.3337 24.2289 29.0357 24.6682C31.672 23.1894 33.3088 20.6582 33.3088 18C33.3088 13.8447 29.3094 10 23.7443 10C18.1792 10 14.1798 13.8447 14.1798 18C14.1798 20.6582 15.8165 23.1894 18.4529 24.6682ZM16.0358 25.4546C13.6692 23.6235 12.1798 20.9621 12.1798 18C12.1798 12.4772 17.3574 8 23.7443 8C30.1312 8 35.3088 12.4772 35.3088 18C35.3088 20.9622 33.8193 23.6235 31.4528 25.4546C33.4338 26.2396 35.2575 27.3283 36.828 28.6863C39.7483 31.2115 41.5916 34.494 42.1024 38C42.1985 38.6599 42.2474 39.3278 42.2474 40H40.2474H23.7442L13.2411 40C8.82278 40 5.11589 36.17 7.45005 32.4186C8.29665 31.058 9.37409 29.7987 10.6605 28.6863C12.231 27.3283 14.0548 26.2396 16.0358 25.4546ZM18.2489 26.801C15.8914 27.5092 13.7396 28.6678 11.9687 30.1991C10.8293 31.1844 9.88495 32.2911 9.14817 33.4752C8.48842 34.5356 8.64933 35.4941 9.3506 36.3366C10.1261 37.2684 11.5744 38 13.2411 38L23.7442 38H40.0774C39.5829 35.1056 38.0201 32.3612 35.5198 30.1991C33.7489 28.6678 31.5971 27.5093 29.2396 26.801C27.605 27.5658 25.7333 28 23.7443 28C21.7553 28 19.8835 27.5658 18.2489 26.801Z" fill="#7F39FB"/>
</g>
<defs>
<clipPath id="clip0_4047_1046">
<rect width="42" height="42" fill="white"/>
</clipPath>
</defs>
</svg>
